<svg width="40" height="40" viewBox="0 0 40 40" fill="none" xmlns="http://www.w3.org/2000/svg">
<path d="M11.5685 12.6124C11.091 9.46743 13.3085 6.64243 16.696 5.60743C17.2971 5.42364 17.9457 5.47595 18.5096 5.75373C19.0735 6.0315 19.5103 6.51383 19.731 7.10243L20.8185 10.0024C20.9936 10.469 21.0252 10.9772 20.9094 11.4618C20.7936 11.9465 20.5356 12.3855 20.1685 12.7224L16.9335 15.6849C16.774 15.8313 16.6552 16.0164 16.5886 16.2223C16.522 16.4283 16.5099 16.6479 16.5535 16.8599L16.5835 16.9899L16.661 17.3149C17.0633 18.894 17.6763 20.4118 18.4835 21.8274C19.3628 23.3317 20.4539 24.7015 21.7235 25.8949L21.8235 25.9849C21.985 26.1283 22.1809 26.2273 22.3921 26.2725C22.6032 26.3176 22.8225 26.3073 23.0285 26.2424L27.211 24.9249C27.6863 24.7757 28.1954 24.7719 28.6729 24.914C29.1504 25.0561 29.5746 25.3376 29.891 25.7224L31.871 28.1249C32.696 29.1249 32.596 30.5949 31.6485 31.4774C29.056 33.8949 25.491 34.3899 23.011 32.3974C19.9711 29.9453 17.4084 26.9547 15.451 23.5749C13.4777 20.1978 12.1596 16.4785 11.566 12.6124H11.5685ZM19.176 17.0249L21.856 14.5649C22.5906 13.8913 23.1071 13.0134 23.3392 12.0441C23.5712 11.0748 23.5083 10.0582 23.1585 9.12493L22.0735 6.22493C21.6293 5.04055 20.7503 4.07008 19.6155 3.51128C18.4807 2.95247 17.1756 2.84739 15.966 3.21743C11.7585 4.50493 8.38099 8.27743 9.09599 12.9899C9.59599 16.2799 10.7485 20.4649 13.291 24.8349C15.4028 28.4792 18.1671 31.7037 21.446 34.3474C25.166 37.3349 30.131 36.3149 33.356 33.3099C34.2788 32.4507 34.8389 31.2718 34.9221 30.0137C35.0052 28.7555 34.6051 27.5131 33.8035 26.5399L31.8235 24.1349C31.1901 23.3661 30.3415 22.8041 29.3865 22.5208C28.4315 22.2375 27.4137 22.2459 26.4635 22.5449L22.991 23.6374C22.0944 22.713 21.3091 21.6869 20.651 20.5799C20.0153 19.4608 19.5199 18.2677 19.176 17.0274V17.0249Z" fill="url(#paint0_linear_168_737)"/>
<defs>
<linearGradient id="paint0_linear_168_737" x1="9.28345" y1="19.4678" x2="35.2834" y2="19.4678" gradientUnits="userSpaceOnUse">
<stop stop-color="#30CDDF"/>
<stop offset="1" stop-color="#1943B5"/>
</linearGradient>
</defs>
</svg>
