<svg width="400" height="200" viewBox="0 0 400 200" fill="none" xmlns="http://www.w3.org/2000/svg">
<rect width="400" height="200" rx="100" fill="url(#paint0_linear_181_731)"/>
<path d="M92 126.25C85.0381 126.25 78.3613 123.484 73.4384 118.562C68.5156 113.639 65.75 106.962 65.75 100C65.75 93.0381 68.5156 86.3613 73.4384 81.4384C78.3613 76.5156 85.0381 73.75 92 73.75C98.9619 73.75 105.639 76.5156 110.562 81.4384C115.484 86.3613 118.25 93.0381 118.25 100C118.25 106.962 115.484 113.639 110.562 118.562C105.639 123.484 98.9619 126.25 92 126.25ZM92 135C101.283 135 110.185 131.313 116.749 124.749C123.313 118.185 127 109.283 127 100C127 90.7174 123.313 81.815 116.749 75.2513C110.185 68.6875 101.283 65 92 65C82.7174 65 73.815 68.6875 67.2513 75.2513C60.6875 81.815 57 90.7174 57 100C57 109.283 60.6875 118.185 67.2513 124.749C73.815 131.313 82.7174 135 92 135V135ZM92 30C93.1603 30 94.2731 30.4609 95.0936 31.2814C95.9141 32.1019 96.375 33.2147 96.375 34.375V51.875C96.375 53.0353 95.9141 54.1481 95.0936 54.9686C94.2731 55.7891 93.1603 56.25 92 56.25C90.8397 56.25 89.7269 55.7891 88.9064 54.9686C88.0859 54.1481 87.625 53.0353 87.625 51.875V34.375C87.625 33.2147 88.0859 32.1019 88.9064 31.2814C89.7269 30.4609 90.8397 30 92 30V30ZM92 143.75C93.1603 143.75 94.2731 144.211 95.0936 145.031C95.9141 145.852 96.375 146.965 96.375 148.125V165.625C96.375 166.785 95.9141 167.898 95.0936 168.719C94.2731 169.539 93.1603 170 92 170C90.8397 170 89.7269 169.539 88.9064 168.719C88.0859 167.898 87.625 166.785 87.625 165.625V148.125C87.625 146.965 88.0859 145.852 88.9064 145.031C89.7269 144.211 90.8397 143.75 92 143.75V143.75ZM162 100C162 101.16 161.539 102.273 160.719 103.094C159.898 103.914 158.785 104.375 157.625 104.375H140.125C138.965 104.375 137.852 103.914 137.031 103.094C136.211 102.273 135.75 101.16 135.75 100C135.75 98.8397 136.211 97.7269 137.031 96.9064C137.852 96.0859 138.965 95.625 140.125 95.625H157.625C158.785 95.625 159.898 96.0859 160.719 96.9064C161.539 97.7269 162 98.8397 162 100ZM48.25 100C48.25 101.16 47.7891 102.273 46.9686 103.094C46.1481 103.914 45.0353 104.375 43.875 104.375H26.375C25.2147 104.375 24.1019 103.914 23.2814 103.094C22.4609 102.273 22 101.16 22 100C22 98.8397 22.4609 97.7269 23.2814 96.9064C24.1019 96.0859 25.2147 95.625 26.375 95.625H43.875C45.0353 95.625 46.1481 96.0859 46.9686 96.9064C47.7891 97.7269 48.25 98.8397 48.25 100ZM141.499 50.5012C142.319 51.3217 142.78 52.4343 142.78 53.5944C142.78 54.7545 142.319 55.8671 141.499 56.6875L129.126 69.0688C128.719 69.4749 128.237 69.797 127.705 70.0167C127.174 70.2363 126.605 70.3491 126.03 70.3487C124.869 70.3479 123.756 69.8859 122.936 69.0644C122.529 68.6576 122.207 68.1748 121.988 67.6436C121.768 67.1123 121.655 66.543 121.656 65.9682C121.657 64.8072 122.118 63.6941 122.94 62.8737L135.312 50.5012C136.133 49.6811 137.246 49.2203 138.406 49.2203C139.566 49.2203 140.678 49.6811 141.499 50.5012V50.5012ZM61.06 130.94C61.8802 131.76 62.3409 132.873 62.3409 134.033C62.3409 135.193 61.8802 136.306 61.06 137.126L48.6875 149.499C47.8624 150.296 46.7572 150.737 45.6101 150.727C44.463 150.717 43.3657 150.257 42.5545 149.445C41.7434 148.634 41.2833 147.537 41.2733 146.39C41.2633 145.243 41.7043 144.138 42.5012 143.312L54.8737 130.94C55.6942 130.12 56.8068 129.659 57.9669 129.659C59.127 129.659 60.2396 130.12 61.06 130.94V130.94ZM141.499 149.499C140.678 150.319 139.566 150.78 138.406 150.78C137.246 150.78 136.133 150.319 135.312 149.499L122.94 137.126C122.143 136.301 121.702 135.196 121.712 134.049C121.722 132.902 122.182 131.804 122.993 130.993C123.804 130.182 124.902 129.722 126.049 129.712C127.196 129.702 128.301 130.143 129.126 130.94L141.499 143.312C142.319 144.133 142.78 145.246 142.78 146.406C142.78 147.566 142.319 148.678 141.499 149.499ZM61.06 69.0688C60.2396 69.8889 59.127 70.3497 57.9669 70.3497C56.8068 70.3497 55.6942 69.8889 54.8737 69.0688L42.5012 56.6875C42.0834 56.2839 41.7501 55.8012 41.5208 55.2674C41.2915 54.7336 41.1708 54.1595 41.1658 53.5786C41.1607 52.9977 41.2714 52.4216 41.4914 51.884C41.7114 51.3463 42.0362 50.8578 42.447 50.447C42.8578 50.0362 43.3463 49.7114 43.884 49.4914C44.4216 49.2714 44.9977 49.1607 45.5786 49.1658C46.1595 49.1708 46.7336 49.2915 47.2674 49.5208C47.8012 49.7501 48.2839 50.0834 48.6875 50.5012L61.06 62.8737C61.4674 63.2801 61.7907 63.7629 62.0112 64.2945C62.2318 64.826 62.3453 65.3958 62.3453 65.9713C62.3453 66.5467 62.2318 67.1165 62.0112 67.648C61.7907 68.1796 61.4674 68.6624 61.06 69.0688V69.0688Z" fill="#F1F1F1"/>
<path d="M335.417 30C343.252 41.5975 347.432 55.2761 347.42 69.2719C347.42 108.415 315.343 140.147 275.771 140.147C262.833 140.171 250.129 136.701 239 130.104C251.206 154.132 276.334 170.625 305.368 170.625C346.379 170.625 379.623 137.74 379.623 97.1719C379.623 67.1883 361.449 41.4164 335.417 30Z" fill="#202439"/>
<defs>
<linearGradient id="paint0_linear_181_731" x1="-115" y1="100" x2="400" y2="100" gradientUnits="userSpaceOnUse">
<stop stop-color="#30CDDF"/>
<stop offset="1" stop-color="#1943B5"/>
</linearGradient>
</defs>
</svg>
