<svg width="22" height="38" viewBox="0 0 22 38" fill="none" xmlns="http://www.w3.org/2000/svg">
<path d="M1 3C1 1.89543 1.89543 1 3 1H19C20.1046 1 21 1.89543 21 3V35C21 36.1046 20.1046 37 19 37H3C1.89543 37 1 36.1046 1 35V3Z" stroke="url(#paint0_linear_167_716)" stroke-width="2"/>
<path d="M17.4167 25C16.9104 25 16.5 24.5896 16.5 24.0833L16.5 18.9167C16.5 18.4104 16.9104 18 17.4167 18C17.9229 18 18.3333 18.4104 18.3333 18.9167V24.0833C18.3333 24.5896 17.9229 25 17.4167 25Z" fill="url(#paint1_linear_167_716)"/>
<path d="M17.4167 12C16.9104 12 16.5 11.5896 16.5 11.0833V6.91667C16.5 6.41041 16.9104 6 17.4167 6C17.9229 6 18.3333 6.41041 18.3333 6.91667V11.0833C18.3333 11.5896 17.9229 12 17.4167 12Z" fill="url(#paint2_linear_167_716)"/>
<path d="M1.83325 15H20.1666" stroke="url(#paint3_linear_167_716)" stroke-width="2"/>
<defs>
<linearGradient id="paint0_linear_167_716" x1="22" y1="15.9189" x2="3.10255e-07" y2="15.9189" gradientUnits="userSpaceOnUse">
<stop stop-color="#1943B5"/>
<stop offset="1" stop-color="#30CDDF"/>
</linearGradient>
<linearGradient id="paint1_linear_167_716" x1="1.7281e-07" y1="21" x2="22" y2="21" gradientUnits="userSpaceOnUse">
<stop stop-color="#30CDDF"/>
<stop offset="1" stop-color="#1943B5"/>
</linearGradient>
<linearGradient id="paint2_linear_167_716" x1="0.5" y1="8.5" x2="21.5" y2="8.5" gradientUnits="userSpaceOnUse">
<stop stop-color="#30CDDF"/>
<stop offset="1" stop-color="#1943B5"/>
</linearGradient>
<linearGradient id="paint3_linear_167_716" x1="21.0537" y1="17" x2="0.650456" y2="17" gradientUnits="userSpaceOnUse">
<stop stop-color="#1943B5"/>
<stop offset="1" stop-color="#30CDDF"/>
</linearGradient>
</defs>
</svg>
