<svg width="35" height="38" viewBox="0 0 35 38" fill="none" xmlns="http://www.w3.org/2000/svg">
<path d="M3 1H32C33.1046 1 34 1.89543 34 3V35C34 36.1046 33.1046 37 32 37H3C1.89543 37 1 36.1046 1 35V3C1 1.89543 1.89543 1 3 1Z" stroke="url(#paint0_linear_163_724)" stroke-width="2"/>
<circle cx="29" cy="5" r="2" fill="url(#paint1_linear_163_724)"/>
<circle cx="24" cy="5" r="2" fill="url(#paint2_linear_163_724)"/>
<circle cx="18" cy="23" r="9" stroke="url(#paint3_linear_163_724)" stroke-width="2"/>
<path d="M4 5C4 3.89543 4.89543 3 6 3H11C12.1046 3 13 3.89543 13 5V5C13 6.10457 12.1046 7 11 7H6C4.89543 7 4 6.10457 4 5V5Z" fill="url(#paint4_linear_163_724)"/>
<path d="M2 10H33" stroke="url(#paint5_linear_163_724)" stroke-width="2"/>
<defs>
<linearGradient id="paint0_linear_163_724" x1="35" y1="15.9189" x2="4.93587e-07" y2="15.9189" gradientUnits="userSpaceOnUse">
<stop stop-color="#1943B5"/>
<stop offset="1" stop-color="#30CDDF"/>
</linearGradient>
<linearGradient id="paint1_linear_163_724" x1="35" y1="7" x2="2.36449e-07" y2="7" gradientUnits="userSpaceOnUse">
<stop stop-color="#1943B5"/>
<stop offset="1" stop-color="#30CDDF"/>
</linearGradient>
<linearGradient id="paint2_linear_163_724" x1="35" y1="6.5" x2="0.5" y2="6" gradientUnits="userSpaceOnUse">
<stop stop-color="#1943B5"/>
<stop offset="1" stop-color="#30CDDF"/>
</linearGradient>
<linearGradient id="paint3_linear_163_724" x1="35" y1="22.5" x2="8.13433e-07" y2="22.5" gradientUnits="userSpaceOnUse">
<stop stop-color="#1943B5"/>
<stop offset="1" stop-color="#30CDDF"/>
</linearGradient>
<linearGradient id="paint4_linear_163_724" x1="-2.38339e-07" y1="4" x2="35" y2="4" gradientUnits="userSpaceOnUse">
<stop stop-color="#30CDDF"/>
<stop offset="1" stop-color="#1943B5"/>
</linearGradient>
<linearGradient id="paint5_linear_163_724" x1="34.5" y1="12" x2="3.89974e-07" y2="12" gradientUnits="userSpaceOnUse">
<stop stop-color="#1943B5"/>
<stop offset="1" stop-color="#30CDDF"/>
</linearGradient>
</defs>
</svg>
