<svg width="35" height="35" viewBox="0 0 35 35" fill="none" xmlns="http://www.w3.org/2000/svg">
<path d="M17.5 35C17.2099 35 16.9317 34.8848 16.7266 34.6796C16.5215 34.4745 16.4062 34.1963 16.4062 33.9062V31.0778L14.9931 32.4931C14.7877 32.6982 14.5093 32.8133 14.2191 32.8131C13.9288 32.8129 13.6505 32.6974 13.4455 32.492C13.2404 32.2867 13.1253 32.0082 13.1255 31.718C13.1257 31.4277 13.2412 31.1495 13.4465 30.9444L16.4062 27.9847V19.3944L8.96873 23.6884L7.88373 27.7353C7.80831 28.0155 7.62467 28.2543 7.37319 28.3991C7.12172 28.5439 6.82301 28.5829 6.5428 28.5075C6.26258 28.4321 6.0238 28.2484 5.87899 27.997C5.73417 27.7455 5.69519 27.4468 5.77061 27.1666L6.28905 25.2372L3.83905 26.6503C3.58797 26.7931 3.29062 26.8307 3.01188 26.755C2.73315 26.6794 2.49566 26.4965 2.35125 26.2464C2.20683 25.9963 2.16721 25.6992 2.24104 25.4199C2.31486 25.1407 2.49613 24.902 2.7453 24.7559L5.1953 23.3428L3.26155 22.8244C3.1228 22.787 2.99276 22.7227 2.87886 22.6351C2.76497 22.5475 2.66944 22.4383 2.59774 22.3138C2.52603 22.1893 2.47955 22.0519 2.46096 21.9094C2.44236 21.7669 2.45201 21.6222 2.48936 21.4834C2.5267 21.3447 2.59101 21.2147 2.67861 21.1008C2.76621 20.9869 2.87539 20.8913 2.9999 20.8196C3.12442 20.7479 3.26184 20.7014 3.40432 20.6828C3.5468 20.6643 3.69155 20.6739 3.8303 20.7113L7.8728 21.7941L15.3125 17.5L7.87498 13.2059L3.82811 14.2887C3.54971 14.3581 3.2552 14.3154 3.00806 14.1696C2.76091 14.0239 2.58093 13.7869 2.50689 13.5097C2.43286 13.2325 2.47071 12.9373 2.61228 12.6878C2.75386 12.4382 2.98782 12.2543 3.26373 12.1756L5.1953 11.6572L2.7453 10.2441C2.6199 10.1728 2.50985 10.0774 2.42147 9.96338C2.3331 9.84938 2.26814 9.71902 2.23035 9.57982C2.19256 9.44062 2.18267 9.29531 2.20126 9.15227C2.21985 9.00923 2.26656 8.87128 2.33868 8.74636C2.4108 8.62144 2.50692 8.51202 2.62151 8.42441C2.73609 8.33679 2.86687 8.2727 3.00632 8.23583C3.14578 8.19896 3.29114 8.19004 3.43406 8.20958C3.57697 8.22912 3.71461 8.27674 3.83905 8.34969L6.28905 9.76281L5.77061 7.83125C5.73081 7.69164 5.7192 7.5455 5.73646 7.40136C5.75371 7.25721 5.79949 7.11795 5.87113 6.99168C5.94276 6.86541 6.03882 6.75467 6.15369 6.6659C6.26857 6.57714 6.39997 6.51213 6.54022 6.47467C6.68048 6.43721 6.82679 6.42805 6.97063 6.44771C7.11446 6.46738 7.25294 6.51549 7.37799 6.58922C7.50305 6.66296 7.61217 6.76086 7.699 6.8772C7.78583 6.99354 7.84863 7.12601 7.88373 7.26688L8.96655 11.3116L16.4062 15.6056V7.01531L13.4465 4.05562C13.3449 3.95408 13.2642 3.83349 13.2091 3.70076C13.154 3.56802 13.1256 3.42574 13.1255 3.28202C13.1254 3.13831 13.1536 2.99598 13.2085 2.86317C13.2634 2.73036 13.3439 2.60966 13.4455 2.50797C13.547 2.40628 13.6676 2.32558 13.8003 2.27049C13.9331 2.2154 14.0753 2.18699 14.2191 2.18689C14.3628 2.18679 14.5051 2.215 14.6379 2.2699C14.7707 2.3248 14.8914 2.40533 14.9931 2.50688L16.4062 3.92219V1.09375C16.4062 0.803669 16.5215 0.52547 16.7266 0.320352C16.9317 0.115234 17.2099 0 17.5 0C17.7901 0 18.0683 0.115234 18.2734 0.320352C18.4785 0.52547 18.5937 0.803669 18.5937 1.09375V3.92219L20.009 2.50688C20.2144 2.30179 20.4929 2.18669 20.7831 2.18689C21.0733 2.1871 21.3516 2.30259 21.5567 2.50797C21.7618 2.71335 21.8769 2.99178 21.8767 3.28202C21.8765 3.57227 21.761 3.85054 21.5556 4.05562L18.5937 7.01531V15.6056L26.0312 11.3116L27.1162 7.26469C27.1917 6.98447 27.3753 6.74569 27.6268 6.60088C27.8783 6.45606 28.177 6.41708 28.4572 6.4925C28.7374 6.56792 28.9762 6.75157 29.121 7.00304C29.2658 7.25452 29.3048 7.55322 29.2294 7.83344L28.7131 9.76281L31.1631 8.34969C31.4142 8.20693 31.7115 8.16929 31.9903 8.24496C32.269 8.32064 32.5065 8.50349 32.6509 8.75362C32.7953 9.00374 32.8349 9.30084 32.7611 9.58007C32.6873 9.8593 32.506 10.098 32.2569 10.2441L29.8069 11.6572L31.7384 12.1756C32.0186 12.251 32.2574 12.4347 32.4022 12.6862C32.547 12.9376 32.586 13.2363 32.5106 13.5166C32.4352 13.7968 32.2515 14.0356 32.0001 14.1804C31.7486 14.3252 31.4499 14.3642 31.1697 14.2887L27.1272 13.2059L19.6875 17.5L27.125 21.7941L31.1697 20.7113C31.4499 20.6361 31.7485 20.6754 31.9997 20.8204C32.251 20.9654 32.4344 21.2043 32.5095 21.4845C32.5846 21.7647 32.5454 22.0633 32.4004 22.3146C32.2553 22.5659 32.0165 22.7492 31.7362 22.8244L29.8047 23.3428L32.2547 24.7559C32.5038 24.902 32.6851 25.1407 32.7589 25.4199C32.8328 25.6992 32.7931 25.9963 32.6487 26.2464C32.5043 26.4965 32.2668 26.6794 31.9881 26.755C31.7094 26.8307 31.412 26.7931 31.1609 26.6503L28.7109 25.2372L29.2272 27.1688C29.267 27.3084 29.2786 27.4545 29.2613 27.5986C29.2441 27.7428 29.1983 27.8821 29.1267 28.0083C29.055 28.1346 28.959 28.2453 28.8441 28.3341C28.7292 28.4229 28.5978 28.4879 28.4576 28.5253C28.3173 28.5628 28.171 28.572 28.0272 28.5523C27.8833 28.5326 27.7448 28.4845 27.6198 28.4108C27.4947 28.337 27.3856 28.2391 27.2988 28.1228C27.212 28.0065 27.1492 27.874 27.114 27.7331L26.0312 23.6884L18.5937 19.3944V27.9847L21.5534 30.9444C21.7588 31.1495 21.8743 31.4277 21.8745 31.718C21.8747 32.0082 21.7596 32.2867 21.5545 32.492C21.3494 32.6974 21.0712 32.8129 20.7809 32.8131C20.4907 32.8133 20.2122 32.6982 20.0069 32.4931L18.5915 31.0778V33.9062C18.5915 34.1963 18.4763 34.4745 18.2712 34.6796C18.0661 34.8848 17.7879 35 17.4978 35H17.5Z" fill="url(#paint0_linear_168_732)"/>
<defs>
<linearGradient id="paint0_linear_168_732" x1="2" y1="19" x2="33" y2="19" gradientUnits="userSpaceOnUse">
<stop stop-color="#30CDDF"/>
<stop offset="1" stop-color="#1943B5"/>
</linearGradient>
</defs>
</svg>
