<svg width="70" height="70" viewBox="0 0 70 70" fill="none" xmlns="http://www.w3.org/2000/svg">
<circle cx="36.5" cy="34.5" r="25.5" fill="#202439"/>
<path d="M14.0838 46.4639L24.4069 56.3726L12.1375 60.6401L14.0838 46.4639Z" fill="#202439"/>
<g filter="url(#filter0_b_156_716)">
<path d="M43.4766 38.0251C44.8389 38.4504 46.1443 39.038 47.3641 39.7751L47.286 39.7301C48.6187 40.3176 49.7701 41.0051 50.8207 41.8126L50.7829 41.7851C50.8333 41.9376 50.8635 42.1101 50.8635 42.2926L50.861 42.3726V42.3701C50.8232 43.4426 50.5839 44.4501 50.1782 45.3676L50.1984 45.3151C49.6164 46.4726 48.6464 47.365 47.4598 47.84L47.4245 47.8526C46.1967 48.4896 44.8389 48.8409 43.4539 48.88H43.4388C40.7953 48.5428 38.2405 47.7096 35.9108 46.4251L36.0191 46.48C33.5445 45.3677 31.2942 43.8183 29.3779 41.9076L29.3754 41.9051C27.2852 39.7456 25.3901 37.4083 23.7117 34.9201L23.5933 34.7351C21.9278 32.5747 20.9615 29.9641 20.822 27.2476L20.8194 27.2151V26.9051C20.8564 25.7447 21.131 24.6039 21.6265 23.5522C22.122 22.5005 22.8281 21.5599 23.7017 20.7876L23.7092 20.7801C24.2489 20.2466 24.9757 19.9411 25.7374 19.9276H25.7399C25.9943 19.9351 26.2387 19.9551 26.4755 19.9901L26.4428 19.9851C26.662 20.0176 26.9164 20.0376 27.1785 20.0426H27.186C27.5528 20.0072 27.9208 20.0972 28.2291 20.2976L28.224 20.2951C28.4936 20.5901 28.7002 20.9476 28.8236 21.3401L28.8287 21.3601C29.037 21.8768 29.4669 23.0135 30.1186 24.7701C30.4587 25.5551 30.7913 26.5226 31.0584 27.5176L31.0936 27.6751C30.9119 28.5452 30.4386 29.3286 29.7508 29.8976L29.7432 29.9026C28.8446 30.8459 28.3953 31.4459 28.3953 31.7026C28.405 31.9131 28.4758 32.1163 28.5994 32.2876L28.5969 32.2851C29.5713 34.284 30.9186 36.0815 32.5675 37.5826L32.5801 37.5951C34.3063 39.1381 36.2415 40.434 38.3294 41.4451L38.4781 41.5101C38.7334 41.6745 39.0281 41.7685 39.3321 41.7826H39.3372C39.7285 41.7826 40.4323 41.1559 41.4485 39.9026C42.4646 38.6492 43.1398 38.0226 43.4741 38.0226L43.4766 38.0251ZM35.548 58.565H35.6034C38.9116 58.5697 42.1844 57.8894 45.2125 56.5675L45.0588 56.6275C50.9945 54.1425 55.6227 49.55 58.0666 43.8176L58.127 43.6601C59.3615 40.8776 60.0796 37.6326 60.0796 34.2226C60.0796 30.8126 59.3615 27.5676 58.0666 24.6301L58.127 24.7851C55.6227 18.8951 50.9945 14.3026 45.2175 11.8777L45.0588 11.8177C42.2547 10.5927 38.9845 9.88016 35.548 9.88016C32.1115 9.88016 28.8413 10.5927 25.881 11.8777L26.0372 11.8177C20.1014 14.3026 15.4732 18.8951 13.0294 24.6276L12.9689 24.7851C11.6699 27.7744 11.0053 30.9972 11.0164 34.2526C11.0082 39.3996 12.6679 44.4129 15.7504 48.5525L15.7025 48.4875L12.6162 57.52L22.0691 54.535C26.018 57.1742 30.6736 58.578 35.4346 58.565H35.553H35.548ZM35.548 5.00017H35.6311C39.7327 5.00017 43.6328 5.85517 47.1575 7.39766L46.9735 7.32516C54.0909 10.3177 59.6412 15.8251 62.5839 22.6976L62.6569 22.8876C64.1384 26.2301 65 30.1276 65 34.2251C65 38.3226 64.1384 42.2201 62.5839 45.7476L62.6569 45.5626C59.6412 52.625 54.0909 58.1325 47.165 61.0525L46.9735 61.125C43.6303 62.595 39.7302 63.45 35.6286 63.45H35.5429H35.548H35.4144C30.227 63.45 25.3569 62.0975 21.1444 59.73L21.2881 59.805L5 65L10.3135 49.3025C7.53986 44.7753 6.08036 39.5758 6.09595 34.2776C6.09595 30.1626 6.95759 26.2476 8.51207 22.7001L8.43901 22.8876C11.4548 15.8251 17.005 10.3177 23.9309 7.39766L24.1224 7.32516C27.7008 5.77841 31.5642 4.98667 35.4674 5.00017H35.5505H35.5455H35.548Z" fill="url(#paint0_linear_156_716)"/>
</g>
<g filter="url(#filter1_f_156_716)">
<path d="M43.4766 38.0251C44.8389 38.4504 46.1443 39.038 47.3641 39.7751L47.286 39.7301C48.6187 40.3176 49.7701 41.0051 50.8207 41.8126L50.7829 41.7851C50.8333 41.9376 50.8635 42.1101 50.8635 42.2926L50.861 42.3726V42.3701C50.8232 43.4426 50.5839 44.4501 50.1782 45.3676L50.1984 45.3151C49.6164 46.4725 48.6464 47.3651 47.4598 47.84L47.4245 47.8525C46.1967 48.4896 44.8389 48.8409 43.4539 48.88H43.4388C40.7953 48.5428 38.2405 47.7096 35.9108 46.4251L36.0191 46.48C33.5445 45.3677 31.2942 43.8183 29.3779 41.9076L29.3754 41.9051C27.2852 39.7456 25.3901 37.4083 23.7117 34.9201L23.5933 34.7351C21.9278 32.5747 20.9615 29.9641 20.822 27.2476L20.8194 27.2151V26.9051C20.8564 25.7447 21.131 24.6039 21.6265 23.5522C22.122 22.5005 22.8281 21.5599 23.7017 20.7876L23.7092 20.7801C24.2489 20.2466 24.9757 19.9411 25.7374 19.9276H25.7399C25.9943 19.9351 26.2387 19.9551 26.4755 19.9901L26.4428 19.9851C26.662 20.0176 26.9164 20.0376 27.1785 20.0426H27.186C27.5528 20.0072 27.9208 20.0972 28.2291 20.2976L28.224 20.2951C28.4936 20.5901 28.7002 20.9476 28.8236 21.3401L28.8287 21.3601C29.037 21.8768 29.4669 23.0135 30.1186 24.7701C30.4587 25.5551 30.7913 26.5226 31.0584 27.5176L31.0936 27.6751C30.9119 28.5452 30.4386 29.3286 29.7508 29.8976L29.7432 29.9026C28.8446 30.8459 28.3953 31.4459 28.3953 31.7026C28.405 31.9131 28.4758 32.1163 28.5994 32.2876L28.5969 32.2851C29.5713 34.284 30.9186 36.0815 32.5675 37.5826L32.5801 37.5951C34.3063 39.1381 36.2415 40.434 38.3294 41.4451L38.4781 41.5101C38.7334 41.6745 39.0281 41.7685 39.3321 41.7826H39.3372C39.7285 41.7826 40.4323 41.1559 41.4485 39.9026C42.4646 38.6492 43.1398 38.0226 43.4741 38.0226L43.4766 38.0251ZM35.548 58.565H35.6034C38.9116 58.5697 42.1844 57.8894 45.2125 56.5675L45.0588 56.6275C50.9945 54.1425 55.6227 49.55 58.0666 43.8176L58.127 43.6601C59.3615 40.8776 60.0796 37.6326 60.0796 34.2226C60.0796 30.8126 59.3615 27.5676 58.0666 24.6301L58.127 24.7851C55.6227 18.8951 50.9945 14.3026 45.2175 11.8776L45.0588 11.8177C42.2547 10.5927 38.9845 9.88016 35.548 9.88016C32.1115 9.88016 28.8413 10.5927 25.881 11.8776L26.0372 11.8177C20.1014 14.3026 15.4732 18.8951 13.0294 24.6276L12.9689 24.7851C11.6699 27.7744 11.0053 30.9972 11.0164 34.2526C11.0082 39.3996 12.6679 44.4129 15.7504 48.5525L15.7025 48.4875L12.6162 57.52L22.0691 54.535C26.018 57.1742 30.6736 58.578 35.4346 58.565H35.553H35.548ZM35.548 5.00017H35.6311C39.7327 5.00017 43.6328 5.85517 47.1575 7.39766L46.9735 7.32516C54.0909 10.3177 59.6412 15.8251 62.5839 22.6976L62.6569 22.8876C64.1384 26.2301 65 30.1276 65 34.2251C65 38.3226 64.1384 42.2201 62.5839 45.7476L62.6569 45.5626C59.6412 52.625 54.0909 58.1325 47.165 61.0525L46.9735 61.125C43.6303 62.595 39.7302 63.45 35.6286 63.45H35.5429H35.548H35.4144C30.227 63.45 25.3569 62.0975 21.1444 59.73L21.2881 59.805L5 65L10.3135 49.3025C7.53986 44.7753 6.08036 39.5758 6.09595 34.2776C6.09595 30.1626 6.95759 26.2476 8.51207 22.7001L8.43901 22.8876C11.4548 15.8251 17.005 10.3177 23.9309 7.39766L24.1224 7.32516C27.7008 5.77841 31.5642 4.98667 35.4674 5.00017H35.5505H35.5455H35.548Z" fill="url(#paint1_linear_156_716)"/>
</g>
<defs>
<filter id="filter0_b_156_716" x="-7" y="-7" width="84" height="84" filterUnits="userSpaceOnUse" color-interpolation-filters="sRGB">
<feFlood flood-opacity="0" result="BackgroundImageFix"/>
<feGaussianBlur in="BackgroundImage" stdDeviation="6"/>
<feComposite in2="SourceAlpha" operator="in" result="effect1_backgroundBlur_156_716"/>
<feBlend mode="normal" in="SourceGraphic" in2="effect1_backgroundBlur_156_716" result="shape"/>
</filter>
<filter id="filter1_f_156_716" x="0" y="0" width="70" height="70" filterUnits="userSpaceOnUse" color-interpolation-filters="sRGB">
<feFlood flood-opacity="0" result="BackgroundImageFix"/>
<feBlend mode="normal" in="SourceGraphic" in2="BackgroundImageFix" result="shape"/>
<feGaussianBlur stdDeviation="2.5" result="effect1_foregroundBlur_156_716"/>
</filter>
<linearGradient id="paint0_linear_156_716" x1="68.2576" y1="34.8894" x2="0.986307" y2="34.8894" gradientUnits="userSpaceOnUse">
<stop stop-color="#1943B5"/>
<stop offset="0.953125" stop-color="#30CDDF"/>
</linearGradient>
<linearGradient id="paint1_linear_156_716" x1="68.2576" y1="34.8894" x2="0.986307" y2="34.8894" gradientUnits="userSpaceOnUse">
<stop stop-color="#1943B5"/>
<stop offset="0.953125" stop-color="#30CDDF"/>
</linearGradient>
</defs>
</svg>
